<?xml version="1.0" encoding="UTF-8" standalone="no"?>
<!-- Created with Inkscape (http://www.inkscape.org/) -->

<svg
   xmlns:dc="http://purl.org/dc/elements/1.1/"
   xmlns:cc="http://creativecommons.org/ns#"
   xmlns:rdf="http://www.w3.org/1999/02/22-rdf-syntax-ns#"
   xmlns:svg="http://www.w3.org/2000/svg"
   xmlns="http://www.w3.org/2000/svg"
   xmlns:sodipodi="http://sodipodi.sourceforge.net/DTD/sodipodi-0.dtd"
   xmlns:inkscape="http://www.inkscape.org/namespaces/inkscape"
   width="365.16296"
   height="35.234016"
   id="svg2"
   version="1.1"
   inkscape:version="0.48.4 r9939"
   sodipodi:docname="title_1.svg">
  <defs
     id="defs4" />
  <sodipodi:namedview
     id="base"
     pagecolor="#607d8b"
     bordercolor="#666666"
     borderopacity="1.0"
     inkscape:pageopacity="1"
     inkscape:pageshadow="2"
     inkscape:zoom="1.4"
     inkscape:cx="241.55591"
     inkscape:cy="62.163686"
     inkscape:document-units="px"
     inkscape:current-layer="text3015"
     showgrid="false"
     fit-margin-top="0"
     fit-margin-left="0"
     fit-margin-right="0"
     fit-margin-bottom="0"
     inkscape:window-width="959"
     inkscape:window-height="1030"
     inkscape:window-x="959"
     inkscape:window-y="0"
     inkscape:window-maximized="0" />
  <g
     inkscape:label="Layer 1"
     inkscape:groupmode="layer"
     id="layer1"
     transform="translate(-22.142859,-181.9336)">
    <g
       style="font-size:58.72335815px;font-style:normal;font-variant:normal;font-weight:normal;font-stretch:normal;line-height:125%;letter-spacing:0px;word-spacing:0px;fill:#000000;fill-opacity:1;stroke:none;font-family:Squared Display;-inkscape-font-specification:Squared Display"
       id="text3015">
      <path
         d="m 28.015194,181.9336 17.617008,0 0,1.46809 -16.148924,0 0,10.27658 10.276588,0 0,1.46809 -10.276588,0 0,22.02126 -1.468084,0 0,-22.02126 -5.872335,0 0,-1.46809 5.872335,0 0,-11.74467"
         style="-inkscape-font-specification:Squared Display;fill:#ffffff"
         id="path3019" />
      <path
         d="m 60.313041,189.27402 -8.808503,0 0,-1.46808 8.808503,0 0,1.46808 m 2.936168,4.40425 0,23.48935 -1.468084,0 0,-22.02126 -10.276587,0 0,-1.46809 11.744671,0"
         style="-inkscape-font-specification:Squared Display;fill:#ffffff"
         id="path3021" />
      <path
         d="m 92.656768,193.67827 0,23.48935 -1.468084,0 0,-22.02126 -20.553175,0 0,22.02126 -1.468084,0 0,-23.48935 23.489343,0"
         style="-inkscape-font-specification:Squared Display;fill:#ffffff"
         id="path3023" />
      <path
         d="m 122.01845,181.9336 0,35.23402 -23.489346,0 0,-23.48935 17.617006,0 0,1.46809 -16.148922,0 0,20.55317 20.553172,0 0,-33.76593 1.46809,0"
         style="-inkscape-font-specification:Squared Display;fill:#ffffff"
         id="path3025" />
      <path
         d="m 163.1248,193.67827 0,23.48935 -1.46809,0 0,-22.02126 -20.55317,0 0,22.02126 -1.46809,0 0,-22.02126 -10.27658,0 0,22.02126 -1.46809,0 0,-23.48935 35.23402,0"
         style="fill-opacity:1;-inkscape-font-specification:Squared Display;fill:#ff6e40"
         id="path3027" />
      <path
         d="m 192.4406,193.67827 0,23.48935 -23.48935,0 0,-23.48935 23.48935,0 m -22.02126,1.46809 0,20.55317 20.55317,0 0,-20.55317 -20.55317,0"
         style="fill-opacity:1;-inkscape-font-specification:Squared Display;fill:#ff6e40"
         id="path3029" />
      <path
         d="m 221.80228,193.67827 0,23.48935 -23.48935,0 0,-23.48935 23.48935,0 m -22.02126,1.46809 0,20.55317 20.55317,0 0,-20.55317 -20.55317,0"
         style="fill-opacity:1;-inkscape-font-specification:Squared Display;fill:#ff6e40"
         id="path3031" />
      <path
         d="m 227.67461,193.67827 23.48935,0 0,1.46809 -22.02126,0 0,20.55317 22.02126,0 0,1.46809 -23.48935,0 0,-23.48935"
         style="fill-opacity:1;-inkscape-font-specification:Squared Display;fill:#ff6e40"
         id="path3033" />
      <path
         d="m 280.52563,193.67827 0,1.46809 -22.02125,0 0,4.40425 22.02125,0 0,17.61701 -23.48934,0 0,-1.46809 22.02126,0 0,-14.68084 -22.02126,0 0,-7.34042 23.48934,0"
         style="fill-opacity:1;-inkscape-font-specification:Squared Display;fill:#ff6e40"
         id="path3035" />
      <path
         d="m 292.67749,209.88455 6.05011,0 0,7.28307 -6.05011,0 0,-7.28307"
         style="-inkscape-font-specification:Squared Display;fill:#ffffff"
         id="path3037" />
      <path
         d="m 328.58246,193.67827 0,23.48935 -1.46809,0 0,-22.02126 -20.55317,0 0,22.02126 -1.46809,0 0,-23.48935 23.48935,0"
         style="-inkscape-font-specification:Squared Display;fill:#ffffff"
         id="path3039" />
      <path
         d="m 357.94412,193.67827 0,7.34042 -17.61701,0 0,-1.46808 16.14893,0 0,-4.40425 -20.55318,0 0,20.55317 22.02126,0 0,1.46809 -23.48934,0 0,-23.48935 23.48934,0"
         style="-inkscape-font-specification:Squared Display;fill:#ffffff"
         id="path3041" />
      <path
         d="m 369.68881,181.9336 1.46808,0 0,11.74467 10.27659,0 0,1.46809 -10.27659,0 0,20.55317 16.14893,0 0,1.46809 -17.61701,0 0,-22.02126 -5.87234,0 0,-1.46809 5.87234,0 0,-11.74467"
         style="-inkscape-font-specification:Squared Display;fill:#ffffff"
         id="path3043" />
    </g>
  </g>
</svg>
